<mxfile host="app.diagrams.net" agent="Mozilla/5.0 (X11; Linux x86_64) AppleWebKit/537.36 (KHTML, like Gecko) Chrome/131.0.0.0 Safari/537.36" version="28.2.5">
  <diagram name="Страница — 1" id="VEveGzfzLPNnsSKiKBnb">
    <mxGraphModel dx="567" dy="330" grid="1" gridSize="10" guides="0" tooltips="1" connect="1" arrows="1" fold="1" page="0" pageScale="1" pageWidth="827" pageHeight="1169" math="0" shadow="0">
      <root>
        <mxCell id="0" />
        <mxCell id="1" parent="0" />
        <mxCell id="khdtYhaCzw99SLC-Dacm-15" value="&lt;b style=&quot;&quot;&gt;&lt;font style=&quot;font-size: 13px;&quot;&gt;Heap&lt;/font&gt;&lt;/b&gt;&lt;div&gt;&lt;font style=&quot;font-size: 10px;&quot;&gt;(dynamic data)&lt;/font&gt;&lt;/div&gt;" style="rounded=0;whiteSpace=wrap;html=1;strokeColor=none;fillColor=none;fontFamily=Helvetica;" parent="1" vertex="1">
          <mxGeometry x="360" y="350" width="80" height="40" as="geometry" />
        </mxCell>
        <mxCell id="khdtYhaCzw99SLC-Dacm-1" value="&lt;div&gt;&lt;font style=&quot;font-size: 10px;&quot;&gt;(kernel space&lt;/font&gt;&lt;font style=&quot;font-size: 10px;&quot;&gt;)&lt;/font&gt;&lt;/div&gt;" style="rounded=0;whiteSpace=wrap;html=1;fillColor=none;fontFamily=Helvetica;" parent="1" vertex="1">
          <mxGeometry x="360" y="150" width="80" height="40" as="geometry" />
        </mxCell>
        <mxCell id="khdtYhaCzw99SLC-Dacm-3" value="&lt;b style=&quot;&quot;&gt;&lt;font style=&quot;font-size: 14px;&quot;&gt;Stack&lt;/font&gt;&lt;/b&gt;&lt;div&gt;&lt;font style=&quot;font-size: 10px;&quot;&gt;(local objects)&lt;/font&gt;&lt;/div&gt;" style="rounded=0;whiteSpace=wrap;html=1;strokeColor=none;fillColor=none;fontFamily=Helvetica;" parent="1" vertex="1">
          <mxGeometry x="360" y="200" width="80" height="40" as="geometry" />
        </mxCell>
        <mxCell id="khdtYhaCzw99SLC-Dacm-34" value="" style="endArrow=none;dashed=1;html=1;dashPattern=1 1;strokeWidth=1;rounded=0;exitX=0;exitY=1;exitDx=0;exitDy=0;fontFamily=Helvetica;" parent="1" edge="1">
          <mxGeometry width="50" height="50" relative="1" as="geometry">
            <mxPoint x="360" y="350" as="sourcePoint" />
            <mxPoint x="440" y="350" as="targetPoint" />
          </mxGeometry>
        </mxCell>
        <mxCell id="khdtYhaCzw99SLC-Dacm-42" value="&lt;b style=&quot;&quot;&gt;&lt;font style=&quot;font-size: 14px;&quot;&gt;Data&lt;/font&gt;&lt;/b&gt;&lt;div&gt;&lt;font style=&quot;font-size: 10px;&quot;&gt;(static objects)&lt;/font&gt;&lt;/div&gt;" style="rounded=0;whiteSpace=wrap;html=1;strokeColor=default;fillColor=none;fontFamily=Helvetica;" parent="1" vertex="1">
          <mxGeometry x="360" y="400" width="80" height="40" as="geometry" />
        </mxCell>
        <mxCell id="khdtYhaCzw99SLC-Dacm-43" value="&lt;b style=&quot;&quot;&gt;&lt;font style=&quot;font-size: 15px;&quot;&gt;Text&lt;/font&gt;&lt;/b&gt;&lt;div&gt;&lt;font style=&quot;font-size: 10px;&quot;&gt;(binary image)&lt;/font&gt;&lt;/div&gt;" style="rounded=0;whiteSpace=wrap;html=1;strokeColor=default;fillColor=none;fontFamily=Helvetica;" parent="1" vertex="1">
          <mxGeometry x="360" y="440" width="80" height="40" as="geometry" />
        </mxCell>
        <mxCell id="khdtYhaCzw99SLC-Dacm-46" value="0x00000000" style="text;html=1;strokeColor=none;fillColor=none;align=center;verticalAlign=middle;whiteSpace=wrap;rounded=0;fontFamily=Helvetica;" parent="1" vertex="1">
          <mxGeometry x="438" y="479" width="90" height="20" as="geometry" />
        </mxCell>
        <mxCell id="khdtYhaCzw99SLC-Dacm-49" value="4 GB" style="text;html=1;strokeColor=none;fillColor=none;align=center;verticalAlign=middle;whiteSpace=wrap;rounded=0;fontFamily=Helvetica;" parent="1" vertex="1">
          <mxGeometry x="288" y="320" width="39" height="40" as="geometry" />
        </mxCell>
        <mxCell id="khdtYhaCzw99SLC-Dacm-53" value="" style="endArrow=none;html=1;rounded=0;entryX=0;entryY=1;entryDx=0;entryDy=0;fontFamily=Helvetica;" parent="1" target="khdtYhaCzw99SLC-Dacm-1" edge="1">
          <mxGeometry width="50" height="50" relative="1" as="geometry">
            <mxPoint x="360" y="310" as="sourcePoint" />
            <mxPoint x="150" y="220" as="targetPoint" />
          </mxGeometry>
        </mxCell>
        <mxCell id="cbG0LDzf9TAqD4d8shDT-7" value="" style="endArrow=none;html=1;rounded=0;entryX=1;entryY=1;entryDx=0;entryDy=0;exitX=1;exitY=0;exitDx=0;exitDy=0;fontFamily=Helvetica;" parent="1" target="khdtYhaCzw99SLC-Dacm-1" edge="1">
          <mxGeometry width="50" height="50" relative="1" as="geometry">
            <mxPoint x="439.9999999999999" y="390" as="sourcePoint" />
            <mxPoint x="580" y="310" as="targetPoint" />
          </mxGeometry>
        </mxCell>
        <mxCell id="cbG0LDzf9TAqD4d8shDT-15" value="" style="endArrow=none;dashed=1;html=1;rounded=0;dashPattern=1 1;fontFamily=Helvetica;" parent="1" edge="1">
          <mxGeometry width="50" height="50" relative="1" as="geometry">
            <mxPoint x="360" y="310" as="sourcePoint" />
            <mxPoint x="440" y="310" as="targetPoint" />
          </mxGeometry>
        </mxCell>
        <mxCell id="cbG0LDzf9TAqD4d8shDT-26" value="" style="endArrow=none;html=1;rounded=0;exitX=0;exitY=0;exitDx=0;exitDy=0;fontFamily=Helvetica;" parent="1" edge="1">
          <mxGeometry width="50" height="50" relative="1" as="geometry">
            <mxPoint x="359.9999999999999" y="390" as="sourcePoint" />
            <mxPoint x="360" y="310" as="targetPoint" />
            <Array as="points" />
          </mxGeometry>
        </mxCell>
        <mxCell id="cbG0LDzf9TAqD4d8shDT-45" value="" style="shape=curlyBracket;whiteSpace=wrap;html=1;rounded=0;flipH=1;labelPosition=right;verticalLabelPosition=middle;align=left;verticalAlign=middle;direction=west;fontFamily=Helvetica;" parent="1" vertex="1">
          <mxGeometry x="330" y="190" width="20" height="300" as="geometry" />
        </mxCell>
        <mxCell id="D9ZIIw_PFDN3URD8yPiD-1" value="" style="rounded=0;whiteSpace=wrap;html=1;strokeColor=default;fillColor=#000000;fontFamily=Helvetica;" vertex="1" parent="1">
          <mxGeometry x="360" y="480" width="80" height="10" as="geometry" />
        </mxCell>
        <mxCell id="D9ZIIw_PFDN3URD8yPiD-2" value="1 GB" style="text;html=1;strokeColor=none;fillColor=none;align=center;verticalAlign=middle;whiteSpace=wrap;rounded=0;fontFamily=Helvetica;" vertex="1" parent="1">
          <mxGeometry x="288" y="150" width="40" height="40" as="geometry" />
        </mxCell>
        <mxCell id="D9ZIIw_PFDN3URD8yPiD-3" value="" style="rounded=0;whiteSpace=wrap;html=1;strokeColor=default;fillColor=#000000;fontFamily=Helvetica;" vertex="1" parent="1">
          <mxGeometry x="360" y="390" width="80" height="10" as="geometry" />
        </mxCell>
        <mxCell id="D9ZIIw_PFDN3URD8yPiD-4" value="&lt;div&gt;&lt;font style=&quot;font-size: 13px;&quot;&gt;&lt;b style=&quot;&quot;&gt;Mappings&lt;/b&gt;&lt;/font&gt;&lt;/div&gt;" style="rounded=0;whiteSpace=wrap;html=1;strokeColor=none;fillColor=none;fontFamily=Helvetica;" vertex="1" parent="1">
          <mxGeometry x="360" y="270" width="80" height="40" as="geometry" />
        </mxCell>
        <mxCell id="D9ZIIw_PFDN3URD8yPiD-5" value="" style="rounded=0;whiteSpace=wrap;html=1;strokeColor=default;fillColor=#000000;fontFamily=Helvetica;" vertex="1" parent="1">
          <mxGeometry x="360" y="260" width="80" height="10" as="geometry" />
        </mxCell>
        <mxCell id="D9ZIIw_PFDN3URD8yPiD-6" value="" style="shape=curlyBracket;whiteSpace=wrap;html=1;rounded=0;flipH=1;labelPosition=right;verticalLabelPosition=middle;align=left;verticalAlign=middle;direction=east;fontFamily=Helvetica;" vertex="1" parent="1">
          <mxGeometry x="450" y="200" width="20" height="60" as="geometry" />
        </mxCell>
        <mxCell id="D9ZIIw_PFDN3URD8yPiD-7" value="8 MB" style="text;html=1;strokeColor=none;fillColor=none;align=center;verticalAlign=middle;whiteSpace=wrap;rounded=0;fontFamily=Helvetica;" vertex="1" parent="1">
          <mxGeometry x="473" y="210" width="40" height="40" as="geometry" />
        </mxCell>
        <mxCell id="D9ZIIw_PFDN3URD8yPiD-8" value="" style="endArrow=none;dashed=1;html=1;rounded=0;dashPattern=1 1;fontFamily=Helvetica;entryX=1;entryY=1;entryDx=0;entryDy=0;" edge="1" parent="1" target="khdtYhaCzw99SLC-Dacm-3">
          <mxGeometry width="50" height="50" relative="1" as="geometry">
            <mxPoint x="360" y="240" as="sourcePoint" />
            <mxPoint x="450" y="300" as="targetPoint" />
          </mxGeometry>
        </mxCell>
        <mxCell id="D9ZIIw_PFDN3URD8yPiD-9" value="" style="rounded=0;whiteSpace=wrap;html=1;strokeColor=default;fillColor=#000000;fontFamily=Helvetica;" vertex="1" parent="1">
          <mxGeometry x="360" y="190" width="80" height="10" as="geometry" />
        </mxCell>
        <mxCell id="D9ZIIw_PFDN3URD8yPiD-10" value="" style="shape=curlyBracket;whiteSpace=wrap;html=1;rounded=0;flipH=1;labelPosition=right;verticalLabelPosition=middle;align=left;verticalAlign=middle;direction=west;fontFamily=Helvetica;" vertex="1" parent="1">
          <mxGeometry x="330" y="150" width="20" height="40" as="geometry" />
        </mxCell>
      </root>
    </mxGraphModel>
  </diagram>
</mxfile>
